<?xml version="1.0" encoding="UTF-8"?>
<svg xmlns="http://www.w3.org/2000/svg" viewBox="0 0 512 512">
  <!-- OASIS AI Circuit Tree - Safari Pinned Tab Icon -->
  <!-- This uses a single color for Safari pinned tabs -->
  <g fill="#00D4FF">
    <!-- Main trunk -->
    <rect x="248" y="280" width="16" height="150" rx="4"/>
    
    <!-- Trunk base roots -->
    <ellipse cx="256" cy="420" rx="80" ry="20" fill="none" stroke="#00D4FF" stroke-width="4"/>
    <ellipse cx="256" cy="430" rx="100" ry="25" fill="none" stroke="#00D4FF" stroke-width="3"/>
    <ellipse cx="256" cy="440" rx="120" ry="30" fill="none" stroke="#00D4FF" stroke-width="2"/>
    
    <!-- Main vertical branch -->
    <rect x="252" y="100" width="8" height="180" rx="2"/>
    
    <!-- Left branches -->
    <path d="M256,260 L180,220" stroke="#00D4FF" stroke-width="6" stroke-linecap="round"/>
    <path d="M180,220 L120,200" stroke="#00D4FF" stroke-width="4" stroke-linecap="round"/>
    <path d="M180,220 L150,180" stroke="#00D4FF" stroke-width="4" stroke-linecap="round"/>
    
    <path d="M256,220 L160,180" stroke="#00D4FF" stroke-width="5" stroke-linecap="round"/>
    <path d="M160,180 L100,150" stroke="#00D4FF" stroke-width="3" stroke-linecap="round"/>
    <path d="M160,180 L130,140" stroke="#00D4FF" stroke-width="3" stroke-linecap="round"/>
    
    <path d="M256,180 L180,140" stroke="#00D4FF" stroke-width="5" stroke-linecap="round"/>
    <path d="M180,140 L140,100" stroke="#00D4FF" stroke-width="3" stroke-linecap="round"/>
    <path d="M180,140 L160,90" stroke="#00D4FF" stroke-width="3" stroke-linecap="round"/>
    
    <path d="M256,140 L200,100" stroke="#00D4FF" stroke-width="4" stroke-linecap="round"/>
    <path d="M200,100 L180,60" stroke="#00D4FF" stroke-width="3" stroke-linecap="round"/>
    
    <!-- Right branches -->
    <path d="M256,260 L332,220" stroke="#00D4FF" stroke-width="6" stroke-linecap="round"/>
    <path d="M332,220 L392,200" stroke="#00D4FF" stroke-width="4" stroke-linecap="round"/>
    <path d="M332,220 L362,180" stroke="#00D4FF" stroke-width="4" stroke-linecap="round"/>
    
    <path d="M256,220 L352,180" stroke="#00D4FF" stroke-width="5" stroke-linecap="round"/>
    <path d="M352,180 L412,150" stroke="#00D4FF" stroke-width="3" stroke-linecap="round"/>
    <path d="M352,180 L382,140" stroke="#00D4FF" stroke-width="3" stroke-linecap="round"/>
    
    <path d="M256,180 L332,140" stroke="#00D4FF" stroke-width="5" stroke-linecap="round"/>
    <path d="M332,140 L372,100" stroke="#00D4FF" stroke-width="3" stroke-linecap="round"/>
    <path d="M332,140 L352,90" stroke="#00D4FF" stroke-width="3" stroke-linecap="round"/>
    
    <path d="M256,140 L312,100" stroke="#00D4FF" stroke-width="4" stroke-linecap="round"/>
    <path d="M312,100 L332,60" stroke="#00D4FF" stroke-width="3" stroke-linecap="round"/>
    
    <!-- Top branches -->
    <path d="M256,100 L230,60" stroke="#00D4FF" stroke-width="4" stroke-linecap="round"/>
    <path d="M256,100 L280,60" stroke="#00D4FF" stroke-width="4" stroke-linecap="round"/>
    
    <!-- Node dots (circuit connection points) -->
    <circle cx="256" cy="100" r="8"/>
    <circle cx="256" cy="140" r="6"/>
    <circle cx="256" cy="180" r="6"/>
    <circle cx="256" cy="220" r="6"/>
    <circle cx="256" cy="260" r="6"/>
    
    <!-- Left side nodes -->
    <circle cx="180" cy="220" r="6"/>
    <circle cx="120" cy="200" r="5"/>
    <circle cx="150" cy="180" r="5"/>
    <circle cx="160" cy="180" r="6"/>
    <circle cx="100" cy="150" r="5"/>
    <circle cx="130" cy="140" r="5"/>
    <circle cx="180" cy="140" r="6"/>
    <circle cx="140" cy="100" r="5"/>
    <circle cx="160" cy="90" r="5"/>
    <circle cx="200" cy="100" r="5"/>
    <circle cx="180" cy="60" r="5"/>
    <circle cx="230" cy="60" r="5"/>
    
    <!-- Right side nodes -->
    <circle cx="332" cy="220" r="6"/>
    <circle cx="392" cy="200" r="5"/>
    <circle cx="362" cy="180" r="5"/>
    <circle cx="352" cy="180" r="6"/>
    <circle cx="412" cy="150" r="5"/>
    <circle cx="382" cy="140" r="5"/>
    <circle cx="332" cy="140" r="6"/>
    <circle cx="372" cy="100" r="5"/>
    <circle cx="352" cy="90" r="5"/>
    <circle cx="312" cy="100" r="5"/>
    <circle cx="332" cy="60" r="5"/>
    <circle cx="280" cy="60" r="5"/>
  </g>
</svg>
